<?xml version="1.0" encoding="utf-8"?>
<svg version="1.1" id="Layer_1" xmlns="http://www.w3.org/2000/svg" xmlns:xlink="http://www.w3.org/1999/xlink" x="0px" y="0px"
	 viewBox="0 0 1024 1024" style="enable-background:new 0 0 1024 1024;" xml:space="preserve">
<style type="text/css">
	.st0{fill:#EDEFEF;}
	.st1{fill:#FFFFFF;}
	.st2{fill:#898989;}
	.st3{fill:#1D1D1B;}
	.st4{fill:#E0E0E0;}
	.st5{opacity:0.62;fill:#FAFCFC;}
	.st6{fill:#D1D1D1;}
	.st7{fill:#214859;}
	.st8{fill:#40494C;}
	.st9{fill:#2E5A73;}
	.st10{fill:#E0E2E8;}
	.st11{fill:#706F6F;}
	.st12{fill:#D8D8D8;}
	.st13{fill:#7D7E83;}
	.st14{fill:#5D5E60;}
	.st15{fill:#A5A5A5;}
	.st16{fill:#474746;}
	.st17{fill:#30302F;}
	.st18{fill:#C1305D;}
	.st19{opacity:0.66;fill:#D93664;}
	.st20{opacity:0.69;fill:#F799A2;}
	.st21{fill:#3C3C3B;}
	.st22{fill:none;stroke:#D1D1D1;stroke-width:5;stroke-linecap:round;stroke-miterlimit:10;}
	.st23{fill:#969999;}
	.st24{opacity:0.39;}
	.st25{fill:#656868;}
	.st26{fill:#565656;}
	.st27{fill:#878787;}
	.st28{fill:#DADADA;}
	.st29{fill:#606060;}
	.st30{fill:none;stroke:#B2B2B2;stroke-width:5;stroke-miterlimit:10;}
	.st31{fill:#F6F6F6;}
	.st32{fill:#CECECE;}
	.st33{fill:#D5DBDB;}
	.st34{opacity:0.7;fill:none;stroke:#BFC0C1;stroke-width:2;stroke-linecap:round;stroke-miterlimit:10;}
	.st35{opacity:0.15;fill:#FFFFFF;}
	.st36{opacity:0.43;fill:#FFFFFF;}
</style>
<g>

	<path class="st0" d="M957.03,527.52c-3.07-2.5-14.66-13.54-16.17-19.25c-1.65-6.23-2.34-12.69-3.46-19.03
		c-0.44-2.47-1.41-5.08-0.23-7.44c1.49-2.97,8.33-13.76,8.87-16.71c0.58-3.22-0.04-6.5-0.23-9.72c-0.18-3.15-0.03-6.32,0.55-9.43
		c0.75-4.01,3.43-9.32-2.33-9.4c-3.15-0.05-23.27-0.09-30.14-0.51c-13.76-0.83-27.37-2.67-40.75-5.99
		c-12.9-3.21-25.18-8.1-37.4-13.26c-12.62-5.33-67.53-25.08-73.48-27.03c-52.13-17.07-100.84-23.54-161.72-28.51
		c-31.74-2.59-95.08-0.9-124.43,3.01c-30.02,4.01-60.78,13.79-78,21.19c-12.68,5.45-77.63,33.93-106.8,52.45
		c-5.84,3.71-11.82,7.28-17.88,10.59c-2.39,1.3-14.36,1.63-17.88,1.84c-39.04,2.29-108.31,12.44-160.3,33.28
		c-6.19,2.48-29.94,13.31-35.35,16.9c-4.31,2.86-11.28,6.62-12.83,11.97c-0.78,2.69,0.2,4.44,2.1,6.17c1.8,1.64,1.67,3.24,1.38,5.6
		c-1.53,12.25-3,24.4-4.28,36.69c-1.04,10.03-3.46,35.84-4.37,37.26c-1.44,2.26-2.85,4.69-2.23,7.7c0.83,4.02,5.61,9.45,9.9,11.06
		c10.33,3.86,58.16,7.55,84.53,8.54c2.11,0.08,3-1.14,2.55-2.84c-7.65-29.09-5.32-55.6,9.31-77.1
		c11.73-17.23,31.87-30.34,57.17-31.71c33.95-1.84,68.1,18.53,79.94,57.8c4.21,13.97,4.4,35.02,3.64,49.62h408.75
		c0.04-1.13-0.11-2.3-0.14-3.05c-1.95-40.82,5.71-56.9,16.3-70.87c10.43-13.76,27.11-29.66,64.23-28.73
		c40.17,1.01,60.48,33.05,65,43.4c9.02,20.69,9.82,38.27,10.43,46.18c0.15,1.91,0.05,6.38,1.06,7.7c1.71,2.22,8.01,1.25,10.96,0.93
		c17.82-1.9,35.54-4.78,53.08-8.47c9.46-1.99,22.21-5.14,28.15-7.73c4.04-1.76,14.66-5.81,17.86-23.95
		C964.05,567.25,958.19,528.47,957.03,527.52z"/>
	<path class="st4" d="M286.71,621.5h408.75c0.04-1.13-0.11-2.3-0.14-3.05c-0.22-4.63-0.31-8.93-0.3-12.96H287.04
		C287.1,611.2,286.96,616.7,286.71,621.5z"/>
	<path class="st4" d="M283.07,555.87c-11.84-39.27-45.99-59.64-79.94-57.8c-25.3,1.37-45.44,14.49-57.17,31.71
		c-10.71,15.73-14.82,34.15-13.27,54.29c1.16-13.94,5.46-26.82,13.27-38.28c11.73-17.23,31.87-30.34,57.17-31.71
		c33.95-1.84,68.1,18.53,79.94,57.8c2.41,8.01,3.5,18.34,3.85,28.45C287.38,586.23,286.81,568.27,283.07,555.87z"/>
	<path class="st4" d="M42.51,595.59c-0.24,1.56-0.45,2.59-0.61,2.85c-1.44,2.26-2.85,4.69-2.23,7.7c0.83,4.02,5.61,9.45,9.9,11.06
		c10.33,3.86,58.16,7.55,84.53,8.54c2.11,0.08,3-1.14,2.55-2.84c-1.17-4.46-2.11-8.85-2.8-13.18c-26.43-1-73.98-4.68-84.28-8.53
		C47.09,600.26,44.45,598.05,42.51,595.59z"/>
	<path class="st4" d="M944.53,584.86c-5.93,2.58-18.69,5.74-28.15,7.73c-17.54,3.69-35.26,6.57-53.08,8.47
		c-2.95,0.31-9.25,1.28-10.96-0.93c-1.02-1.32-0.92-5.79-1.06-7.7c-0.61-7.91-1.41-25.49-10.43-46.18
		c-4.51-10.35-24.82-42.39-65-43.4c-37.13-0.93-53.8,14.97-64.23,28.73c-10.26,13.54-17.77,29.05-16.45,67.15
		c1.06-26.79,7.76-39.68,16.45-51.14c10.43-13.76,27.11-29.66,64.23-28.73c40.17,1.01,60.48,33.05,65,43.4
		c9.02,20.69,9.82,38.27,10.43,46.18c0.15,1.91,0.05,6.38,1.06,7.7c1.71,2.22,8.01,1.25,10.96,0.93c17.82-1.9,35.54-4.78,53.08-8.47
		c9.46-1.99,22.21-5.14,28.15-7.73c4.04-1.76,14.66-5.81,17.86-23.95c0.5-2.86,0.31-8.44-0.23-14.84
		C958.72,579.22,948.47,583.14,944.53,584.86z"/>
	<path class="st5" d="M59.9,516.75c5.41-3.59,29.16-14.42,35.35-16.9c51.99-20.84,121.26-30.98,160.3-33.28
		c3.51-0.21,15.49-0.53,17.88-1.84c6.06-3.31,12.04-6.88,17.88-10.59c29.17-18.51,94.11-47,106.8-52.45
		c17.22-7.4,47.98-17.18,78-21.19c29.35-3.92,92.69-5.6,124.43-3.01c60.88,4.96,99.46,2.78,151.59,19.86
		c5.95,1.95,65.3,21.35,77.92,26.68c12.22,5.16,32.98,15,45.9,18.14c43.76,10.67,64.95,10.57,68.1,10.62
		c0.69,0.01,1.24,0.1,1.71,0.25c0-2.3,0.2-4.6,0.62-6.86c0.75-4.01,3.43-9.32-2.33-9.4c-3.15-0.05-23.27-0.09-30.14-0.51
		c-13.76-0.83-27.37-2.67-40.75-5.99c-12.9-3.21-25.18-8.1-37.4-13.26c-12.62-5.33-67.53-25.08-73.48-27.03
		c-52.13-17.07-100.84-23.54-161.72-28.51c-31.74-2.59-95.08-0.9-124.43,3.01c-30.02,4.01-60.78,13.79-78,21.19
		c-12.68,5.45-77.63,33.93-106.8,52.45c-5.84,3.71-11.82,7.28-17.88,10.59c-2.39,1.3-14.36,1.63-17.88,1.84
		c-39.04,2.29-108.31,12.44-160.3,33.28c-6.19,2.48-29.94,13.31-35.35,16.9c-4.31,2.86-11.28,6.62-12.83,11.97
		c-0.78,2.69,0.2,4.44,2.1,6.17c1.49,1.36,1.65,2.7,1.5,4.46C53.47,520.67,57.2,518.53,59.9,516.75z"/>
	<path class="st6" d="M843.79,461.44c-2.84-1.53-21.94-1.02-27.7-0.94c-10.24,0.14-116.54,3.64-214.32,8.19
		c-81.45,3.78-163.05,8.57-244.36,14.55c-20.21,1.49-81.14,7.07-90.74,8.17c-3.3,0.38-13.74,2.3-8.74,6.95
		c3.27,3.04,9.03,4.02,13.27,4.87c7.43,1.48,15.12,2.18,22.72,2.12c19.55-0.17,37.86-4.57,57.11-7.57
		c19.69-3.07,49.9-7.03,69.72-8.87c41.97-3.88,343.75-24.2,406.14-25.17C835.11,463.6,846.92,463.13,843.79,461.44z"/>
	<path class="st7" d="M770.84,412.34c-25.92-13.54-58.4-23.24-89.37-29.38c-31.42-6.23-63.06-9-95.04-10.78
		c-32.3-1.79-64.86-2.32-96.94,2.26c-30.47,4.36-64.85,16.22-86.53,25.23c-29.29,12.17-57.5,26.63-84.92,42.6
		c-2.2,1.28-11.67,7.14-8.06,9.47c1.71,1.1,8.19,1.55,10.96,1.84c4.07,0.42,44.7,2.79,60.98,2.17
		c6.81-0.26,264.53-11.44,301.62-12.7C771.29,440.06,805.49,430.44,770.84,412.34z"/>
	<path class="st8" d="M770.84,412.34c-25.92-13.54-58.4-23.24-89.37-29.38c-31.42-6.23-63.06-9-95.04-10.78
		c-32.3-1.79-64.86-2.32-96.94,2.26c-30.47,4.36-64.85,16.22-86.53,25.23c-29.29,12.17-57.5,26.63-84.92,42.6
		c-2.2,1.28-11.67,7.14-8.06,9.47c1.71,1.1,8.19,1.55,10.96,1.84c4.07,0.42,44.7,2.79,60.98,2.17
		c6.81-0.26,264.53-11.44,301.62-12.7C771.29,440.06,805.49,430.44,770.84,412.34z M651.75,438.25
		c-31.49,1.02-250.29,10.05-256.07,10.26c-13.82,0.5-48.31-1.41-51.77-1.75c-2.36-0.23-7.86-0.6-9.31-1.49
		c-3.06-1.88,4.98-6.61,6.84-7.65c23.28-12.89,47.23-24.57,72.09-34.39c18.4-7.27,47.59-16.85,73.46-20.37
		c27.23-3.71,54.88-3.28,82.3-1.83c27.15,1.43,54.01,3.67,80.69,8.7c26.29,4.96,53.87,12.79,75.87,23.72
		C755.28,428.07,726.25,435.83,651.75,438.25z"/>
	<path class="st9" d="M530.3,395.5c-0.26-0.01-0.85-0.04-0.96-0.04c-53.59-0.97-107.69,9.18-154.09,33.11
		c-0.92,0.47-1.19,0.96-0.89,1.63c1.25,2.88,3.25,5.28,5,7.92c2.23,3.38,2.27,6.79,2.21,10.47c3.68-0.11,8.88-0.26,15.32-0.45
		c-1.45-3.03-2.95-6.03-4.48-9.02c-1.42-2.79-6.59-11.91-4.29-13.04c6.01-2.92,10.69,9.84,12.33,13.1c1.46,2.9,2.81,5.83,4.26,8.73
		c27.4-0.82,70.61-2.13,115.03-3.59c0.19-3.51,0.38-7.01,0.58-10.52c0.03-0.62-0.6-1.61-1.94-1.77c-4.09-0.51-9.34-3-8.77-7.05
		c0.57-4.07,1.64-8.07,2.63-12.07c0.84-3.4,1.38-7.53,4.21-10.17c3.14-2.92,9.11-2.94,13.32-3.05c1.13-0.03,1.31-0.24,1.42-1.01
		c0.02-0.15,0.16-1.26,0.18-1.52C531.48,395.95,531.06,395.54,530.3,395.5z"/>
	<path class="st9" d="M721.91,420.29c-25.21-10.86-53.11-16.14-80.65-19.99c-14.76-2.06-29.64-3.39-44.57-3.98
		c-6.8-0.26-26.29-1-28.37-0.42c-2.65,0.74-2.61,2.2-3.02,4.7c-0.77,4.79-2.2,31.38-2.59,42.26c55.16-1.93,104.72-3.93,119.34-5.33
		c11.76-1.12,23.76-2.11,35.49-4.07c0.04-0.23,0.09-0.45,0.15-0.67C718.12,431.23,724.81,421.03,721.91,420.29z"/>
	<path class="st10" d="M675.23,568.91c-0.79-3.35-23.78-5.2-29.73-5.65c-76-5.74-231.43-0.13-313.08,7.68
		c-3.86,0.37-14.52,1.5-17.34,4.67c-3.13,3.51,7.38,4.62,13.02,4.62c50.06,0,306.29-5.31,319.81-5.35
		C654.75,574.85,676.36,573.72,675.23,568.91z"/>
	<g>
		<path class="st11" d="M309.27,603.84c-0.36,0-0.68-0.25-0.75-0.61c-3.44-16.91-8.89-50.42-8.9-68.34
			c-0.01-23.78,3.45-60.04,10.11-83.32c0.12-0.41,0.54-0.64,0.95-0.53c0.41,0.12,0.64,0.54,0.53,0.95
			c-6.61,23.15-10.06,59.23-10.05,82.9c0.01,17.81,5.45,51.18,8.87,68.03c0.08,0.41-0.18,0.82-0.6,0.9
			C309.37,603.84,309.32,603.84,309.27,603.84z"/>
	</g>
	<g>
		<path class="st11" d="M538.79,603.84c-0.32,0-0.61-0.19-0.72-0.5c-3.65-10.2-5.28-21.58-5.29-36.91c0-3.91-0.01-7.91-0.01-11.94
			c-0.01-9.26-0.02-18.83,0.01-27.86c0.08-20.43,2.97-39.57,6.04-59.84c0.87-5.73,1.76-11.65,2.58-17.54
			c0.06-0.41,0.44-0.69,0.86-0.64c0.42,0.06,0.71,0.44,0.66,0.85c-0.82,5.9-1.71,11.83-2.58,17.56
			c-3.06,20.21-5.94,39.31-6.02,59.63c-0.03,9.03-0.02,18.6-0.01,27.85c0.01,4.03,0.01,8.03,0.01,11.94
			c0,15.15,1.61,26.38,5.2,36.41c0.14,0.39-0.07,0.82-0.47,0.96C538.97,603.83,538.88,603.84,538.79,603.84z"/>
	</g>
	<g>
		<path class="st11" d="M658.86,603.84H287.39c-0.43,0-0.78-0.34-0.78-0.75c0-0.42,0.35-0.75,0.78-0.75h371.47
			c11.81,0,21.38-9.62,24.73-19.13c7.36-20.9,14.13-32.72,25.87-45.19c4.09-4.34,8.91-8.51,13.58-12.54
			c9.27-8.01,18.86-16.3,23.32-26.43c3.57-8.12,11.95-21.59,20.04-34.6c8.58-13.8,17.46-28.07,18.18-32.44
			c0.98-5.97-2.51-13.6-9.1-15.02c-0.42-0.09-0.68-0.49-0.59-0.9c0.09-0.4,0.51-0.66,0.93-0.57c7.43,1.6,11.38,10.09,10.29,16.72
			c-0.77,4.66-9.32,18.42-18.38,32.98c-8.07,12.97-16.41,26.39-19.94,34.42c-4.59,10.44-14.31,18.84-23.71,26.96
			c-4.64,4.01-9.43,8.15-13.46,12.43c-11.58,12.29-18.26,23.98-25.54,44.66C681.64,593.4,671.98,603.84,658.86,603.84z"/>
	</g>
	<path class="st12" d="M287.83,443.25"/>
	<path class="st13" d="M73.93,542.92c0,0-7.69,11.54-7.69,5.13s-2.56-34.61,10.25-41.01c12.82-6.41,60.24-16.66,61.52-7.69
		C139.3,508.32,104.69,531.39,73.93,542.92z"/>
	<g>
		<path class="st14" d="M138.02,499.34c-0.17-1.2-1.18-2.06-2.81-2.62c-5.36,10.45-35.83,29.91-63.27,40.2c0,0-3.53,5.3-5.81,6.71
			c0.06,1.89,0.12,3.42,0.12,4.41c0,6.41,7.69-5.13,7.69-5.13C104.69,531.39,139.3,508.32,138.02,499.34z"/>
	</g>
	
		<ellipse transform="matrix(0.866 -0.5 0.5 0.866 -244.5795 123.4613)" class="st15" cx="108.09" cy="518.12" rx="25.94" ry="4.71"/>
	<ellipse transform="matrix(0.866 -0.5 0.5 0.866 -237.662 122.1545)" class="st15" cx="109.11" cy="504.56" rx="11.34" ry="4.14"/>
	<g>
		<path class="st16" d="M83.34,610.8c4.1,0.37,7.34-3.4,6.42-7.41c-1.19-5.2-3.06-12.21-5.6-18.56
			c-4.79-11.98-4.79-13.18-9.58-14.38c-1.2-0.3-2.32-0.22-3.33,0.06c-3.05,0.85-5.08,3.74-5.16,6.91
			c-0.19,7.51-0.31,25.22,2.5,28.98C70.62,609.11,77.63,610.29,83.34,610.8z"/>
		<path class="st17" d="M84.76,608.17c3.19,0.29,5.7-2.64,4.99-5.76c-0.93-4.04-2.38-9.49-4.35-14.42
			c-3.72-9.31-3.72-10.24-7.45-11.17c-2.56-0.64-4.68,0.92-5.76,1.96c-0.49,0.47-0.77,1.1-0.8,1.78c-0.14,4.17-0.54,20.94,1.9,24.2
			C74.87,606.86,80.32,607.77,84.76,608.17z"/>
		<ellipse class="st17" cx="70.09" cy="587.34" rx="12.81" ry="2.13"/>
		<ellipse class="st17" cx="70.09" cy="598.02" rx="12.81" ry="2.13"/>
	</g>
	<path class="st18" d="M923.64,471.94c0,0-30.95-2.13-36.29,0c-5.34,2.13-10.67,5.34-8.54,8.54c2.13,3.2,60.84,40.56,60.84,32.02
		C939.65,503.96,930.04,480.48,923.64,471.94z"/>
	<path class="st19" d="M923.12,471.76c0,0-24.76-1.71-29.03,0c-4.27,1.71-8.54,4.27-6.83,6.83s48.67,32.45,48.67,25.62
		S928.24,478.59,923.12,471.76z"/>
	<path class="st20" d="M907.72,479.81c-4.84,0.15-6.64-0.4-10.9,3.44c-3.49,3.15-5.69,5.56,0.15,5.71
		c5.09,0.12,17.85-0.14,27.32-0.31c1.09-2.02,2.79-5.63,3.94-9.02C922.8,479.52,913.26,479.64,907.72,479.81z"/>
	<path class="st20" d="M921.47,496.74c-3.36,0.08-4.61-0.22-7.57,1.9c-2.42,1.74-3.95,3.07,0.11,3.15
		c3.53,0.07,12.39-0.08,18.96-0.17c0.75-1.11,1.94-3.11,2.73-4.97C931.93,496.58,925.31,496.64,921.47,496.74z"/>
	<path class="st21" d="M852.45,616.16c0,0,78.98-25.62,90.72-38.42c11.74-12.81,17.24-29.23,17.24-29.23s11.01,34.72-8.45,49.05
		C932.5,611.89,866.33,619.36,852.45,616.16z"/>
	<path class="st22" d="M65.82,510.49c0,0,41.63-20.28,98.2-27.75c33.57-4.43,62.64-9.62,80.72-13.1
		c12.38-2.39,23.1-10.03,29.4-20.96v0"/>
	<g>
		<path class="st23" d="M519.94,490.29l-42.12,2.02c-2.21,0.11-4.08-1.6-4.19-3.8l-0.08-1.62c-0.11-2.21,1.6-4.08,3.8-4.19
			l42.12-2.02c2.21-0.11,4.08,1.6,4.19,3.8l0.08,1.62C523.85,488.31,522.15,490.18,519.94,490.29z"/>
		<g class="st24">
			<path class="st25" d="M522.45,482.14c-0.07,2.47-1.79,4.5-4.02,4.6l-41.58,1.99c-1.26,0.06-2.41-0.51-3.24-1.46
				c0,0.14-0.02,0.27-0.02,0.41c0.13,2.65,2.14,4.72,4.49,4.6l41.58-1.99c2.36-0.11,4.16-2.36,4.03-5.01
				C523.65,484.05,523.17,482.96,522.45,482.14z"/>
		</g>
	</g>
	<g>
		<path class="st23" d="M735.55,477.48l-42.12,2.02c-2.21,0.11-4.08-1.6-4.19-3.8l-0.08-1.62c-0.11-2.21,1.6-4.08,3.8-4.19
			l42.12-2.02c2.21-0.11,4.08,1.6,4.19,3.8l0.08,1.62C739.46,475.5,737.75,477.37,735.55,477.48z"/>
		<g class="st24">
			<path class="st25" d="M738.06,469.33c-0.07,2.47-1.79,4.5-4.02,4.6l-41.58,1.99c-1.26,0.06-2.41-0.51-3.24-1.46
				c0,0.14-0.02,0.27-0.02,0.41c0.13,2.65,2.14,4.72,4.49,4.6l41.58-1.99c2.36-0.11,4.16-2.36,4.03-5.01
				C739.25,471.25,738.78,470.15,738.06,469.33z"/>
		</g>
	</g>
	<path class="st15" d="M68.25,546.58c0,0-1.27-27.1,1.91-28.52c3.18-1.43,1.27,22.82,1.27,22.82L68.25,546.58z"/>
	<g>
		
			<ellipse transform="matrix(0.9239 -0.3827 0.3827 0.9239 -212.1445 125.133)" class="st21" cx="208.47" cy="595.83" rx="64.01" ry="64.01"/>
		
			<ellipse transform="matrix(0.7071 -0.7071 0.7071 0.7071 -361.0801 321.603)" class="st26" cx="207.67" cy="596.66" rx="48.01" ry="48.01"/>
		
			<ellipse transform="matrix(0.7071 -0.7071 0.7071 0.7071 -360.638 320.5357)" class="st27" cx="206.6" cy="595.6" rx="42.9" ry="42.9"/>
		<path class="st28" d="M229.47,591.08c8.45-4.43,14.9-8.8,14.39-9.77c-0.51-0.97-7.77,1.84-16.22,6.27
			c-3.22,1.69-6.15,3.37-8.51,4.85c-0.31-1.2-0.79-2.33-1.41-3.37c2.51-1.08,5.45-2.49,8.55-4.11c8.45-4.43,14.9-8.8,14.39-9.77
			c-0.51-0.97-7.77,1.84-16.22,6.27c-3.34,1.75-6.35,3.48-8.76,5.01c-1.09-1.06-2.36-1.93-3.77-2.55c0.45-3.17,0.74-8.01,0.74-13.44
			c0-9.54-0.88-17.28-1.97-17.28s-1.97,7.74-1.97,17.28c0,4.98,0.24,9.45,0.63,12.61c-0.84-0.17-1.71-0.26-2.6-0.26
			c-0.54,0-1.07,0.04-1.6,0.11c0.37-3.14,0.61-7.56,0.61-12.45c0-9.54-0.88-17.28-1.97-17.28s-1.97,7.74-1.97,17.28
			c0,5.23,0.27,9.91,0.69,13.08c-1.67,0.59-3.18,1.51-4.46,2.69c-2.5-1.48-5.67-3.17-9.18-4.86c-8.6-4.14-15.95-6.7-16.43-5.71
			s6.11,5.13,14.71,9.27c3.19,1.53,6.21,2.85,8.76,3.85c-0.65,1.02-1.15,2.13-1.49,3.31c-2.39-1.39-5.33-2.94-8.56-4.49
			c-8.6-4.14-15.95-6.7-16.43-5.71c-0.47,0.98,6.11,5.13,14.71,9.27c3.62,1.74,7.01,3.2,9.77,4.24c0,0.08-0.01,0.17-0.01,0.25
			c0,2.8,0.91,5.38,2.42,7.49c-2.43,2.01-6.11,5.72-9.98,10.18c-6.26,7.2-10.67,13.62-9.84,14.34c0.82,0.72,6.57-4.54,12.83-11.75
			c3.74-4.31,6.81-8.32,8.51-11.02c1.13,1.09,2.46,1.98,3.93,2.6c-2.43,1.96-6.21,5.76-10.21,10.36
			c-6.26,7.2-10.67,13.62-9.84,14.34c0.82,0.72,6.57-4.54,12.83-11.75c4.4-5.06,7.87-9.72,9.27-12.3c0.94,0.22,1.92,0.35,2.92,0.35
			c0.95,0,1.87-0.11,2.77-0.31c1.65,2.72,4.68,6.81,8.39,11.21c6.15,7.3,11.82,12.64,12.65,11.94c0.83-0.7-3.48-7.19-9.63-14.48
			c-3.35-3.97-6.54-7.35-8.9-9.5c1.32-0.6,2.52-1.41,3.55-2.39c1.74,2.65,4.42,6.2,7.61,9.98c6.15,7.3,11.82,12.64,12.65,11.94
			c0.83-0.7-3.48-7.19-9.63-14.48c-3.33-3.95-6.52-7.32-8.87-9.48c1.4-2.03,2.22-4.49,2.25-7.14
			C222.31,594.63,225.77,593.01,229.47,591.08z"/>
		<circle class="st29" cx="198.81" cy="591.7" r="1.97"/>
		<circle class="st29" cx="206.71" cy="585.77" r="1.97"/>
		<circle class="st29" cx="214.6" cy="592.68" r="1.97"/>
		<circle class="st29" cx="200.78" cy="601.57" r="1.97"/>
		<circle class="st29" cx="211.64" cy="602.56" r="1.97"/>
	</g>
	<g>

			<ellipse transform="matrix(0.9239 -0.3827 0.3827 0.9239 -169.2464 340.7965)" class="st21" cx="772.03" cy="595.83" rx="64.01" ry="64.01"/>
		
			<ellipse transform="matrix(0.7071 -0.7071 0.7071 0.7071 -196.0185 720.097)" class="st26" cx="771.22" cy="596.66" rx="48.01" ry="48.01"/>
		
			<ellipse transform="matrix(0.7071 -0.7071 0.7071 0.7071 -195.5764 719.0296)" class="st27" cx="770.16" cy="595.6" rx="42.9" ry="42.9"/>
		<path class="st28" d="M793.02,591.08c8.45-4.43,14.9-8.8,14.39-9.77c-0.51-0.97-7.77,1.84-16.22,6.27
			c-3.22,1.69-6.15,3.37-8.51,4.85c-0.31-1.2-0.79-2.33-1.41-3.37c2.51-1.08,5.45-2.49,8.55-4.11c8.45-4.43,14.9-8.8,14.39-9.77
			c-0.51-0.97-7.77,1.84-16.22,6.27c-3.34,1.75-6.35,3.48-8.76,5.01c-1.09-1.06-2.36-1.93-3.77-2.55c0.45-3.17,0.74-8.01,0.74-13.44
			c0-9.54-0.88-17.28-1.97-17.28c-1.09,0-1.97,7.74-1.97,17.28c0,4.98,0.24,9.45,0.63,12.61c-0.84-0.17-1.71-0.26-2.6-0.26
			c-0.54,0-1.07,0.04-1.6,0.11c0.37-3.14,0.61-7.56,0.61-12.45c0-9.54-0.88-17.28-1.97-17.28s-1.97,7.74-1.97,17.28
			c0,5.23,0.27,9.91,0.69,13.08c-1.67,0.59-3.18,1.51-4.46,2.69c-2.5-1.48-5.67-3.17-9.18-4.86c-8.6-4.14-15.95-6.7-16.43-5.71
			c-0.47,0.98,6.11,5.13,14.71,9.27c3.19,1.53,6.21,2.85,8.76,3.85c-0.65,1.02-1.15,2.13-1.49,3.31c-2.39-1.39-5.33-2.94-8.56-4.49
			c-8.6-4.14-15.95-6.7-16.43-5.71c-0.47,0.98,6.11,5.13,14.71,9.27c3.62,1.74,7.01,3.2,9.77,4.24c0,0.08-0.01,0.17-0.01,0.25
			c0,2.8,0.91,5.38,2.42,7.49c-2.43,2.01-6.11,5.72-9.98,10.18c-6.26,7.2-10.67,13.62-9.84,14.34c0.82,0.72,6.57-4.54,12.83-11.75
			c3.74-4.31,6.81-8.32,8.51-11.02c1.13,1.09,2.46,1.98,3.93,2.6c-2.43,1.96-6.21,5.76-10.21,10.36
			c-6.26,7.2-10.67,13.62-9.84,14.34c0.82,0.72,6.57-4.54,12.83-11.75c4.4-5.06,7.87-9.72,9.27-12.3c0.94,0.22,1.92,0.35,2.92,0.35
			c0.95,0,1.87-0.11,2.77-0.31c1.65,2.72,4.68,6.81,8.39,11.21c6.15,7.3,11.82,12.64,12.65,11.94s-3.48-7.19-9.63-14.48
			c-3.35-3.97-6.54-7.35-8.9-9.5c1.32-0.6,2.52-1.41,3.55-2.39c1.74,2.65,4.42,6.2,7.61,9.98c6.15,7.3,11.82,12.64,12.65,11.94
			c0.83-0.7-3.48-7.19-9.63-14.48c-3.33-3.95-6.52-7.32-8.87-9.48c1.4-2.03,2.22-4.49,2.25-7.14
			C785.86,594.63,789.33,593.01,793.02,591.08z"/>
		<circle class="st29" cx="762.36" cy="591.7" r="1.97"/>
		<circle class="st29" cx="770.26" cy="585.77" r="1.97"/>
		<circle class="st29" cx="778.16" cy="592.68" r="1.97"/>
		<circle class="st29" cx="764.34" cy="601.57" r="1.97"/>
		<circle class="st29" cx="775.2" cy="602.56" r="1.97"/>
	</g>
	
		<ellipse transform="matrix(0.7071 -0.7071 0.7071 0.7071 -361.0801 321.603)" class="st30" cx="207.67" cy="596.66" rx="42.9" ry="42.9"/>
	<path class="st31" d="M338.09,450.72c0,0,47.38-1.1,47.38-2.2s-1.1-19.84-16.53-22.04c-15.43-2.2-31.96,7.71-30.85,23.14"/>
	<g>
		<path class="st32" d="M350.78,429.34c-7.87,3.89-13.45,11.11-12.79,20.28v1.1c0,0,47.38-1.1,47.38-2.2c0-0.25-0.06-1.45-0.34-3.15
			c-9.25,0.58-26.59,1.09-35.55,1.33c-2.95,0.08-5.14-2.71-4.35-5.56C346.28,436.97,348.17,431.65,350.78,429.34z"/>
	</g>
	
		<ellipse transform="matrix(0.9985 -0.0553 0.0553 0.9985 -23.908 20.8551)" class="st33" cx="364.7" cy="442.21" rx="18.16" ry="1.07"/>
	<path class="st34" d="M88,508c0,0-11,1-11,10s0,14,0,14"/>
	
		<ellipse transform="matrix(0.926 -0.3775 0.3775 0.926 -186.9864 76.1095)" class="st35" cx="100.64" cy="514.99" rx="31.05" ry="9.23"/>
	<ellipse class="st36" cx="76.41" cy="519.28" rx="3.81" ry="9.23"/>
</g>
</svg>
